<?xml version="1.0" ?><svg viewBox="0 0 69.45 69.45" xmlns="http://www.w3.org/2000/svg"><defs><style>.cls-1{fill:#c14c3c;}.cls-2{fill:#fff;}</style></defs><title/><g data-name="Layer 2" id="Layer_2"><g data-name="Layer 1" id="Layer_1-2"><circle class="cls-1" cx="34.72" cy="34.72" r="34.72"/><path class="cls-2" d="M38.43,34h-12l0,3.43h8.07c-.95,4.18-3.9,6.74-7.86,6.74a9.4,9.4,0,1,1,6.39-16.28l2.65-2.29a12.88,12.88,0,1,0-9,22.05c6.83,0,11.77-5.21,11.77-12.32Z"/><polygon class="cls-2" points="55.64 34.09 50.7 34.09 50.7 29.15 47.54 29.15 47.54 34.09 42.6 34.09 42.6 37.25 47.54 37.25 47.54 42.19 50.7 42.19 50.7 37.25 55.64 37.25 55.64 34.09"/></g></g></svg>