<svg xmlns="http://www.w3.org/2000/svg" xmlns:xlink="http://www.w3.org/1999/xlink" viewBox="0 0 478.1 139.7"><defs><style>.cls-1{fill:url(#Безымянный_градиент_13);}.cls-2{fill:url(#Безымянный_градиент_13-2);}.cls-3{fill:url(#Безымянный_градиент_13-3);}.cls-4{fill:#3e3940;}.cls-5{fill:#27990f;}</style><linearGradient id="Безымянный_градиент_13" x1="51.1" y1="48.34" x2="75.74" y2="101.17" gradientUnits="userSpaceOnUse"><stop offset="0" stop-color="#27990f"/><stop offset="1" stop-color="#55c215"/></linearGradient><linearGradient id="Безымянный_градиент_13-2" x1="57.25" y1="52.3" x2="70.09" y2="79.83" gradientTransform="translate(-3.5 12) rotate(-2.9)" xlink:href="#Безымянный_градиент_13"/><linearGradient id="Безымянный_градиент_13-3" x1="42.62" y1="30.88" x2="84.12" y2="119.87" xlink:href="#Безымянный_градиент_13"/></defs><title>логотип-цвет-горизонтальный</title><g id="Слой_6" data-name="Слой 6"><path class="cls-1" d="M36.3,85.4h0A29.1,29.1,0,1,0,36.7,63a1.4,1.4,0,0,0-.2.7h-.1a1.9,1.9,0,0,0,.6,1.7,1.8,1.8,0,0,0,2.5-.2l.3-.5h0a25.6,25.6,0,1,1,23.6,35.7A26,26,0,0,1,39.6,84.2h0a2.2,2.2,0,0,0-.5-.8,1.8,1.8,0,0,0-2.5.2,1.9,1.9,0,0,0-.3,1.8Z"/><path class="cls-2" d="M67.7,85.6h-.4a.1.1,0,0,0-.1.1,1.7,1.7,0,0,0-.6,2.3,1.9,1.9,0,0,0,1.7.9H69a15.2,15.2,0,1,0-11.2,0h.9a1.8,1.8,0,0,0,1.6-1.8,2.6,2.6,0,0,0-.6-1.3l-.4-.2h-.4a11.9,11.9,0,0,1-7.2-10.2,11.7,11.7,0,0,1,23.4-1.2A11.6,11.6,0,0,1,67.7,85.6Z"/><path class="cls-3" d="M115.3,73.3H109A45.7,45.7,0,0,0,65.4,29.2V23.5a2,2,0,0,0-2-2.1,2.1,2.1,0,0,0-2.1,2.1v5.7A45.7,45.7,0,0,0,17.8,73.3H11.5a2.1,2.1,0,0,0-2.1,2.1,2,2,0,0,0,2.1,2h6.4a45.5,45.5,0,0,0,43.4,42.9v7a2,2,0,0,0,2.1,2,2,2,0,0,0,2-2v-7c17.8-.7,33.5-11.3,39.6-26.9a6.4,6.4,0,0,0,.2-.7,1.8,1.8,0,0,0-1.8-1.8,1.8,1.8,0,0,0-1.6,1.2h0a41.9,41.9,0,0,1-36.4,24.7v-6.3a2,2,0,0,0-2-2.1,2.1,2.1,0,0,0-2.1,2.1v6.3A42,42,0,0,1,21.4,77.4h6.9a2,2,0,0,0,2-2,2,2,0,0,0-2-2.1h-7a42.2,42.2,0,0,1,40-40.6v7.6a2,2,0,0,0,2.1,2,2,2,0,0,0,2-2V32.7a42.1,42.1,0,0,1,40.1,40.6h-7a2.1,2.1,0,0,0-2.1,2.1,2,2,0,0,0,2.1,2h16.8a2,2,0,0,0,2-2A2,2,0,0,0,115.3,73.3Z"/></g><g id="HunterforIT"><path class="cls-4" d="M137.1,55.1h4.4V72h22.6V55.1h4.4V92.9h-4.4V76H141.5V92.9h-4.4Z"/><path class="cls-4" d="M186.2,92.2a10,10,0,0,1-4.5-4.6,16.7,16.7,0,0,1-1.6-7.8V64.6h4.2v15c0,3.3.8,5.9,2.2,7.6s3.6,2.5,6.4,2.5a7.9,7.9,0,0,0,6.3-2.5c1.5-1.7,2.2-4.2,2.2-7.6v-15h4.2V79.8a16.7,16.7,0,0,1-1.6,7.8,10.3,10.3,0,0,1-4.4,4.6,14.4,14.4,0,0,1-6.7,1.5A14.1,14.1,0,0,1,186.2,92.2Z"/><path class="cls-4" d="M220.7,64.6v5.8a11.6,11.6,0,0,1,2.4-3.4,11,11,0,0,1,3.7-2.3,11.8,11.8,0,0,1,4.6-.9c3.7,0,6.6,1.2,8.6,3.5s2.9,5.7,2.9,10.3V92.9h-4.3V77.6c0-3.3-.7-5.7-2.1-7.4a8,8,0,0,0-6.2-2.4,8.4,8.4,0,0,0-4.6,1.3,9.8,9.8,0,0,0-3.5,3.5,11.5,11.5,0,0,0-1.3,5.3v15h-4.3V64.6Z"/><path class="cls-4" d="M258,90.7c-1.7-1.5-2.5-4.2-2.5-8.2V68.4h-6.4V64.6h6.4V56.2h4.3v8.5h9.6v3.8h-9.6V82.7c0,2.6.5,4.3,1.4,5.2a5.6,5.6,0,0,0,3.9,1.4h4.3v3.6h-5.1A8.8,8.8,0,0,1,258,90.7Z"/><path class="cls-4" d="M302.8,79.8H278.9a11.1,11.1,0,0,0,1.7,5.2,9.6,9.6,0,0,0,8.2,4.7,9.8,9.8,0,0,0,5.2-1.3,8.3,8.3,0,0,0,3.2-3.9h4.7a12.9,12.9,0,0,1-2.7,4.7,13.9,13.9,0,0,1-4.6,3.3,13.5,13.5,0,0,1-5.7,1.2,13.1,13.1,0,0,1-7.2-2,14.2,14.2,0,0,1-5.2-5.4,14.9,14.9,0,0,1-1.9-7.5,14.7,14.7,0,0,1,1.9-7.5,15.2,15.2,0,0,1,5.2-5.5,13.9,13.9,0,0,1,7.2-2,13.3,13.3,0,0,1,7.1,2,13.2,13.2,0,0,1,5,5.2,14.7,14.7,0,0,1,1.8,7.1ZM298.5,76a7.6,7.6,0,0,0-1.5-4,8.5,8.5,0,0,0-3.5-3,9.4,9.4,0,0,0-4.7-1.2,10.8,10.8,0,0,0-4.3,1,10.6,10.6,0,0,0-3.5,2.8,10.9,10.9,0,0,0-1.9,4.4Z"/><path class="cls-4" d="M315.8,64.6v6.7a10.3,10.3,0,0,1,3.4-4.9,8.9,8.9,0,0,1,5.5-1.8h2.7v3.8h-2.5a8.2,8.2,0,0,0-4.6,1.3,8.7,8.7,0,0,0-3.1,3.9,14,14,0,0,0-1.2,6V92.9h-4.3V64.6Z"/><path class="cls-4" d="M332,68.3V64.6h6.2V62.5a10.5,10.5,0,0,1,.9-4.4,6.9,6.9,0,0,1,2.8-3.3,7.9,7.9,0,0,1,4.5-1.2h4.5v3.6h-3.6a4.4,4.4,0,0,0-3.6,1.6,6.5,6.5,0,0,0-1.3,4.1v1.7h8.3v3.7h-8.3V92.9h-4.2V68.3Z"/><path class="cls-4" d="M362.2,91.7a13.8,13.8,0,0,1-5.3-5.4,15,15,0,0,1-2-7.5,14.8,14.8,0,0,1,2-7.5,14,14,0,0,1,5.3-5.5,14.4,14.4,0,0,1,7.4-2,14.8,14.8,0,0,1,7.5,2,15.5,15.5,0,0,1,5.3,5.5,14.7,14.7,0,0,1,1.9,7.5,14.9,14.9,0,0,1-1.9,7.5,14.5,14.5,0,0,1-5.3,5.4,14.9,14.9,0,0,1-14.9,0Zm12.7-3.4a10.9,10.9,0,0,0,3.8-3.9,11.9,11.9,0,0,0,1.4-5.6,11.6,11.6,0,0,0-1.4-5.6,9.5,9.5,0,0,0-3.8-3.9,9.9,9.9,0,0,0-10.5,0,9.5,9.5,0,0,0-3.8,3.9,11.6,11.6,0,0,0-1.4,5.6,11.9,11.9,0,0,0,1.4,5.6,10.9,10.9,0,0,0,3.8,3.9,10.1,10.1,0,0,0,5.2,1.4A10.5,10.5,0,0,0,374.9,88.3Z"/><path class="cls-4" d="M397.8,64.6v6.7a9.7,9.7,0,0,1,3.4-4.9,8.7,8.7,0,0,1,5.5-1.8h2.6v3.8h-2.4a8,8,0,0,0-4.6,1.3,9.6,9.6,0,0,0-3.2,3.9,14,14,0,0,0-1.2,6V92.9h-4.2V64.6Z"/><path class="cls-5" d="M418,55.1h4.3V92.9H418Z"/><path class="cls-5" d="M443.5,59H431.4V55.1h28.7V59H447.9V92.9h-4.4Z"/></g></svg>