<svg id="Слой_1" data-name="Слой 1" xmlns="http://www.w3.org/2000/svg" viewBox="0 0 384 384"><title>show</title><path d="M0,188.6C34.2,132.2,81.2,92,146.5,77.1c63.1-14.4,120.7-.2,172.2,38.5a252.2,252.2,0,0,1,61.2,67c4,6.3,4.1,11.8,0,18C349.2,248,309,284.1,254.5,301.3c-66.4,21-128.5,10-185.3-30.3A243.4,243.4,0,0,1,3.5,200.7c-1.3-2-2.3-4-3.5-6.1Zm190,98.9c25-.2,47.4-4.4,68.9-13.2,40.5-16.8,71.8-44.8,96.8-80.3,1.4-2,1-3.2-.2-4.9-18-25.8-39.7-47.8-66.5-64.4-49.4-30.8-102.1-37.6-157.2-18.4-44.2,15.5-77.6,45.2-104.2,83-1.4,1.9-1,3.2.2,4.9A236.5,236.5,0,0,0,72.7,243C107.3,271.4,146.7,287.2,190,287.5Z"/><path d="M119.8,191.5a71.9,71.9,0,1,1,71.7,72A71.9,71.9,0,0,1,119.8,191.5Zm72,48a47.9,47.9,0,1,0-48.1-47.6A47.9,47.9,0,0,0,191.8,239.5Z"/></svg>