<svg id="Слой_1" data-name="Слой 1" xmlns="http://www.w3.org/2000/svg" viewBox="0 0 384 384"><title>web-development</title><path d="M0,353.3V29.9a8.5,8.5,0,0,0,.6-1.7C4.7,11,17.4.8,34.9.8Q191.7.6,348.5.8c20.1,0,34.7,14.5,34.7,34.6q.2,156.3,0,312.4a38.9,38.9,0,0,1-1.2,9.6c-4.1,15.5-17.2,25.1-34.3,25.1H97.4c-21.2,0-42.4.1-63.6,0A33.8,33.8,0,0,1,1.7,359.4C1,357.4.6,355.3,0,353.3Zm360.8-240H22.5V345.8c0,10.3,3.9,14.2,14.2,14.2H346.5c10.3,0,14.3-3.9,14.3-14.1V113.3ZM22.5,90.3H360.8V35.8c0-8.2-4.5-12.6-12.8-12.6H35.6c-8.8,0-13.1,4.3-13.1,13.1-.1,6.1,0,12.2,0,18.3Z"/><path d="M236.5,158.9c-.3.9-.7,2.9-1.4,4.7Q202,241,168.7,318.4c-2.9,6.8-9,9.6-15,7.1s-8.5-9.1-5.5-16l66.3-154.8c2.6-6,7.6-8.9,13-7.8S236.5,152.6,236.5,158.9Z"/><path d="M86.2,236.6l17.7,14.2,26.3,21c5.9,4.8,7,11.5,2.8,16.7s-11,5.5-17,.7L62.3,246.3c-7.3-5.9-7.3-13.6,0-19.5l53.7-43c6-4.8,12.7-4.4,16.9.7s3.2,12-3,17l-40,32Z"/><path d="M297.1,236.5l-22.2-17.8L253,201.2c-5.9-4.7-6.9-11.4-2.7-16.7s10.9-5.5,16.7-.9l54,43.2c7.3,5.9,7.2,13.6-.1,19.5l-53.7,43c-6,4.8-12.8,4.4-16.9-.8s-3.1-11.9,2.8-16.7Z"/><path d="M293.1,45.7c10.7,0,21.4-.1,32.1,0,7.3,0,12.3,4.6,12.4,11.1s-5,11.3-12.2,11.3H260c-7.2,0-12.3-4.8-12.2-11.3s5.1-11.1,12-11.1C270.9,45.6,282,45.7,293.1,45.7Z"/><path d="M56.9,45.7a11.2,11.2,0,1,1-11.2,11A11.3,11.3,0,0,1,56.9,45.7Z"/><path d="M113,56.7a11.2,11.2,0,1,1-22.4.2,11.2,11.2,0,0,1,22.4-.2Z"/><path d="M146.7,45.7a11.2,11.2,0,1,1-11.2,11.1A11.3,11.3,0,0,1,146.7,45.7Z"/></svg>